{
  "accessors": [
    {
      "bufferView": 2,
      "componentType": 5126,
      "count": 9399,
      "max": [
        2.490039825439453,
        57.50114822387695,
        0.9999999403953552
      ],
      "min": [
        -23.499874114990234,
        -1.0199594497680664,
        -23.3443546295166
      ],
      "type": "VEC3"
    },
    {
      "bufferView": 2,
      "byteOffset": 112788,
      "componentType": 5126,
      "count": 9399,
      "max": [
        1.0,
        1.0,
        1.0
      ],
      "min": [
        -1.0,
        -1.0,
        -1.0
      ],
      "type": "VEC3"
    },
    {
      "bufferView": 3,
      "componentType": 5126,
      "count": 9399,
      "max": [
        1.0,
        1.0,
        1.0,
        1.0
      ],
      "min": [
        -1.0,
        -1.0,
        -1.0,
        -1.0
      ],
      "type": "VEC4"
    },
    {
      "bufferView": 1,
      "componentType": 5126,
      "count": 9399,
      "max": [
        0.9989989995956421,
        0.9989989995956421
      ],
      "min": [
        0.0010010009864345193,
        0.0010010009864345193
      ],
      "type": "VEC2"
    },
    {
      "bufferView": 0,
      "componentType": 5125,
      "count": 14742,
      "type": "SCALAR"
    }
  ],
  "asset": {
    "extras": {
      "author": "Anom Purple Modelling (https://sketchfab.com/Anom404)",
      "license": "SKETCHFAB Standard (https://sketchfab.com/licenses)",
      "source": "https://sketchfab.com/3d-models/sofa-50c9f68232a9469cae385ae49c479b30",
      "title": "Sofa"
    },
    "generator": "Sketchfab-15.55.0",
    "version": "2.0"
  },
  "bufferViews": [
    {
      "buffer": 0,
      "byteLength": 58968,
      "name": "floatBufferViews",
      "target": 34963
    },
    {
      "buffer": 0,
      "byteLength": 75192,
      "byteOffset": 58968,
      "byteStride": 8,
      "name": "floatBufferViews",
      "target": 34962
    },
    {
      "buffer": 0,
      "byteLength": 225576,
      "byteOffset": 134160,
      "byteStride": 12,
      "name": "floatBufferViews",
      "target": 34962
    },
    {
      "buffer": 0,
      "byteLength": 150384,
      "byteOffset": 359736,
      "byteStride": 16,
      "name": "floatBufferViews",
      "target": 34962
    }
  ],
  "buffers": [
    {
      "byteLength": 510120,
      "uri": "scene.bin"
    }
  ],
  "images": [
    {
      "uri": "textures/Materiais_baseColor.png"
    },
    {
      "uri": "textures/Materiais_metallicRoughness.png"
    },
    {
      "uri": "textures/Materiais_normal.png"
    }
  ],
  "materials": [
    {
      "doubleSided": true,
      "name": "Materiais",
      "normalTexture": {
        "index": 2
      },
      "occlusionTexture": {
        "index": 1
      },
      "pbrMetallicRoughness": {
        "baseColorTexture": {
          "index": 0
        },
        "metallicRoughnessTexture": {
          "index": 1
        }
      }
    }
  ],
  "meshes": [
    {
      "name": "Cilindro.011_Materiais_0",
      "primitives": [
        {
          "attributes": {
            "NORMAL": 1,
            "POSITION": 0,
            "TANGENT": 2,
            "TEXCOORD_0": 3
          },
          "indices": 4,
          "material": 0,
          "mode": 4
        }
      ]
    }
  ],
  "nodes": [
    {
      "children": [
        1
      ],
      "matrix": [
        16.02690887451172,
        0.0,
        0.0,
        0.0,
        0.0,
        3.558688649210433e-15,
        -16.02690887451172,
        0.0,
        0.0,
        16.02690887451172,
        3.558688649210433e-15,
        0.0,
        0.0,
        0.0,
        0.0,
        1.0
      ],
      "name": "Sketchfab_model"
    },
    {
      "children": [
        2
      ],
      "matrix": [
        0.009999999776482582,
        0.0,
        0.0,
        0.0,
        0.0,
        0.0,
        0.009999999776482582,
        0.0,
        0.0,
        -0.009999999776482582,
        0.0,
        0.0,
        0.0,
        0.0,
        0.0,
        1.0
      ],
      "name": "7f4ecfb7a68548098d338c1b057b3759.fbx"
    },
    {
      "children": [
        3
      ],
      "name": "RootNode"
    },
    {
      "children": [
        4
      ],
      "matrix": [
        -0.25878697633743286,
        -0.0,
        -0.0,
        -0.0,
        0.0,
        4.216175000265236e-08,
        0.2587869763374294,
        -0.0,
        -0.0,
        -0.2587869763374294,
        4.216175000265236e-08,
        -0.0,
        -5.94122838973999,
        0.25878697633743286,
        -7.48980712890625,
        1.0
      ],
      "name": "Cilindro.011"
    },
    {
      "mesh": 0,
      "name": "Cilindro.011_Materiais_0"
    }
  ],
  "samplers": [
    {
      "magFilter": 9729,
      "minFilter": 9987,
      "wrapS": 10497,
      "wrapT": 10497
    }
  ],
  "scene": 0,
  "scenes": [
    {
      "name": "Sketchfab_Scene",
      "nodes": [
        0
      ]
    }
  ],
  "textures": [
    {
      "sampler": 0,
      "source": 0
    },
    {
      "sampler": 0,
      "source": 1
    },
    {
      "sampler": 0,
      "source": 2
    }
  ]
}
